<svg xmlns="http://www.w3.org/2000/svg" version="1.1" viewBox="0 0 2437 596">
<path fill="#ffffff" d="   M 340.08 16.12   Q 342.02 13.18 344.01 10.39   C 344.56 9.61 345.74 9.70 346.18 10.55   L 367.79 52.57   C 368.25 53.47 368.33 54.51 368.01 55.46   Q 363.23 69.80 356.21 82.23   Q 343.39 104.94 326.91 125.17   Q 278.13 185.06 230.15 245.60   Q 223.38 254.13 217.69 261.24   Q 86.25 425.46 22.69 505.19   Q 15.04 514.78 10.51 520.06   Q 10.12 520.51 9.79 520.74   Q 8.59 521.56 9.09 519.75   Q 9.22 519.29 9.54 518.80   Q 174.69 267.38 340.08 16.12   Z"/>
<path fill="#ffffff" d="   M 388.48 93.21   C 388.48 96.72 385.64 99.56 382.13 99.56   C 378.62 99.56 375.78 96.72 375.78 93.21   C 375.78 89.70 378.62 86.86 382.13 86.86   C 385.64 86.86 388.48 89.70 388.48 93.21   Z"/>
<path fill="#ffffff" d="   M 397.71 94.91   Q 398.15 95.26 398.50 96.00   Q 402.45 104.33 406.29 112.70   Q 429.01 162.25 401.44 208.44   Q 394.10 220.72 383.24 232.50   Q 366.35 250.82 346.98 266.48   Q 329.49 280.63 311.94 294.69   Q 299.13 304.95 287.00 316.00   Q 275.29 326.68 265.64 339.17   Q 258.80 348.04 254.63 355.84   Q 237.76 387.41 246.44 424.06   Q 251.40 445.03 260.46 463.83   Q 261.55 466.09 261.30 466.93   Q 260.85 468.43 258.02 469.13   C 257.52 469.25 257.01 469.06 256.71 468.65   Q 245.03 452.27 237.27 433.99   Q 229.59 415.92 228.00 397.25   Q 226.57 380.47 231.25 363.50   Q 236.50 344.47 249.90 326.38   Q 262.50 309.38 278.28 295.29   Q 282.91 291.16 287.55 287.04   Q 292.14 282.98 297.03 279.06   Q 326.44 255.56 335.56 248.56   Q 358.75 230.79 377.19 210.69   Q 386.82 200.18 394.08 186.38   Q 406.50 162.77 404.29 136.00   Q 403.59 127.54 401.68 119.27   Q 398.91 107.24 396.08 95.23   Q 395.51 92.78 397.01 94.36   Q 397.06 94.41 397.71 94.91   Z"/>
<path fill="#ffffff" d="   M 392.98 118.56   C 392.98 122.81 389.53 126.26 385.28 126.26   C 381.03 126.26 377.58 122.81 377.58 118.56   C 377.58 114.31 381.03 110.86 385.28 110.86   C 389.53 110.86 392.98 114.31 392.98 118.56   Z"/>
<path fill="#ffffff" d="   M 1371.25 161.12   Q 1361.34 152.12 1348.94 147.56   Q 1338.56 143.74 1326.80 146.22   Q 1313.90 148.93 1306.69 158.39   Q 1301.31 165.45 1299.45 176.75   Q 1297.75 187.16 1299.81 196.94   Q 1303.49 214.36 1317.81 225.19   Q 1327.64 232.62 1338.44 237.06   Q 1345.05 239.78 1360.26 246.98   Q 1375.41 254.15 1388.92 264.08   Q 1399.42 271.80 1407.36 282.12   Q 1412.91 289.33 1416.36 297.60   Q 1419.58 305.32 1420.54 314.79   Q 1424.09 350.07 1399.55 374.21   Q 1392.63 381.03 1383.69 386.29   Q 1370.25 394.22 1354.83 397.90   Q 1327.00 404.54 1300.00 400.75   Q 1275.47 397.30 1249.66 388.32   Q 1249.59 388.29 1247.81 387.80   Q 1244.43 386.87 1244.64 383.20   Q 1244.75 381.36 1244.75 381.30   Q 1244.75 345.77 1244.75 309.90   C 1244.75 309.28 1245.14 308.73 1245.72 308.52   Q 1248.82 307.38 1249.45 310.21   Q 1256.16 340.31 1275.57 364.18   Q 1279.36 368.84 1283.83 372.80   Q 1288.42 376.87 1293.14 380.20   Q 1305.69 389.06 1320.25 390.50   Q 1333.31 391.79 1344.71 385.48   Q 1356.28 379.08 1360.38 366.50   Q 1368.06 342.97 1357.44 321.81   Q 1353.85 314.66 1346.27 308.70   Q 1331.17 296.82 1313.33 289.64   Q 1300.99 284.68 1289.20 278.53   Q 1281.15 274.33 1273.92 268.84   Q 1254.33 253.97 1248.38 231.07   Q 1245.97 221.78 1245.97 211.27   Q 1245.97 181.36 1266.06 159.96   Q 1272.88 152.70 1281.64 147.54   Q 1293.07 140.82 1305.81 137.81   Q 1325.69 133.12 1347.01 134.89   Q 1377.13 137.40 1405.23 148.58   C 1406.15 148.94 1406.75 149.83 1406.75 150.82   Q 1406.75 184.62 1406.97 218.50   Q 1406.99 221.85 1403.89 221.04   C 1403.24 220.87 1402.75 220.35 1402.60 219.70   Q 1397.27 195.96 1384.08 176.37   Q 1377.85 167.11 1371.25 161.12   Z"/>
<path fill="#ffffff" d="   M 2336.44 382.93   Q 2336.54 343.26 2336.51 303.59   Q 2336.50 293.46 2335.00 289.08   Q 2331.77 279.66 2322.31 274.69   Q 2314.44 270.55 2304.56 269.01   C 2304.22 268.96 2303.92 268.82 2303.69 268.62   Q 2301.56 266.68 2303.64 265.65   Q 2304.46 265.25 2305.93 265.25   Q 2365.59 265.25 2425.25 265.25   C 2425.59 265.25 2425.92 265.35 2426.17 265.53   Q 2428.29 267.04 2426.50 268.40   Q 2425.83 268.90 2424.35 269.24   Q 2420.04 270.20 2413.50 272.75   Q 2400.56 277.79 2396.43 289.55   Q 2395.01 293.57 2394.94 301.12   Q 2394.58 339.15 2394.76 378.26   C 2394.76 379.10 2394.26 379.87 2393.49 380.20   Q 2340.86 402.90 2283.49 401.86   Q 2272.50 401.66 2263.61 400.07   Q 2219.56 392.20 2189.97 359.11   Q 2183.30 351.66 2178.03 343.12   Q 2155.79 307.07 2157.50 262.75   Q 2158.40 239.48 2166.66 219.17   Q 2170.26 210.32 2175.74 201.37   Q 2198.49 164.22 2239.75 146.50   Q 2263.65 136.23 2288.76 134.97   Q 2336.49 132.57 2383.50 150.36   C 2384.10 150.59 2384.50 151.17 2384.50 151.81   L 2384.44 221.68   C 2384.44 222.03 2384.33 222.35 2384.12 222.57   Q 2382.89 223.94 2381.59 222.97   Q 2380.88 222.44 2380.57 221.11   Q 2374.93 196.78 2358.69 176.06   Q 2357.04 173.96 2355.93 172.93   Q 2354.56 171.65 2354.52 171.61   Q 2336.83 153.16 2312.40 148.36   Q 2302.12 146.34 2292.51 147.19   Q 2277.73 148.49 2265.19 155.94   Q 2252.74 163.32 2243.44 176.44   Q 2232.53 191.82 2226.78 212.30   Q 2222.36 228.06 2220.88 244.28   Q 2220.06 253.31 2219.73 264.23   Q 2219.00 288.62 2223.75 310.50   Q 2229.45 336.74 2244.44 358.06   Q 2250.06 366.06 2258.45 373.05   Q 2271.07 383.56 2286.62 387.17   Q 2295.33 389.20 2306.49 388.63   Q 2321.46 387.86 2335.96 383.58   C 2336.24 383.50 2336.44 383.23 2336.44 382.93   Z   M 2384.26 152.42   C 2384.26 152.35 2384.21 152.30 2384.14 152.30   L 2384.12 152.30   C 2384.05 152.30 2384.00 152.35 2384.00 152.42   L 2384.00 207.34   C 2384.00 207.41 2384.05 207.46 2384.12 207.46   L 2384.14 207.46   C 2384.21 207.46 2384.26 207.41 2384.26 207.34   L 2384.26 152.42   Z"/>
<path fill="#ffffff" d="   M 394.74 145.33   C 394.74 149.58 391.30 153.02 387.05 153.02   C 382.80 153.02 379.36 149.58 379.36 145.33   C 379.36 141.08 382.80 137.64 387.05 137.64   C 391.30 137.64 394.74 141.08 394.74 145.33   Z"/>
<path fill="#ffffff" d="   M 540.22 155.87   Q 529.91 148.59 517.48 146.22   Q 515.69 145.88 515.12 145.47   Q 513.80 144.51 514.71 142.58   C 514.93 142.12 515.38 141.81 515.89 141.79   Q 566.67 139.31 616.73 139.02   Q 616.84 139.02 627.27 138.86   Q 656.60 138.40 685.21 145.18   Q 703.59 149.54 720.17 158.59   Q 735.22 166.80 747.08 179.16   Q 776.18 209.49 779.50 253.00   Q 781.09 273.82 778.63 292.39   Q 777.25 302.75 774.43 311.91   Q 763.88 346.12 735.80 368.09   Q 728.04 374.16 719.04 378.94   Q 698.35 389.93 673.75 394.00   Q 658.84 396.46 651.25 396.93   Q 634.02 398.00 616.75 397.87   Q 599.38 397.75 580.50 397.75   C 579.66 397.75 578.88 397.31 578.46 396.60   L 548.50 346.18   C 548.34 345.91 548.25 345.58 548.25 345.25   Q 548.25 259.50 548.22 173.75   Q 548.21 167.56 545.53 162.13   Q 544.95 160.95 543.39 159.35   Q 542.57 158.49 541.86 157.54   Q 541.06 156.46 540.22 155.87   Z   M 690.86 178.90   Q 677.71 163.75 658.57 157.67   Q 646.58 153.86 634.00 153.22   Q 620.88 152.55 607.05 152.76   C 606.74 152.77 606.50 153.01 606.50 153.32   L 606.50 385.30   C 606.50 385.60 606.75 385.83 607.05 385.82   Q 618.54 385.38 629.87 384.73   Q 639.64 384.17 645.57 383.16   Q 653.73 381.77 660.94 379.44   Q 685.32 371.55 698.79 349.30   Q 710.45 330.05 714.38 308.16   Q 715.82 300.14 716.78 288.31   Q 717.97 273.65 717.23 258.97   Q 716.62 246.97 715.62 239.04   Q 712.19 211.95 697.79 188.38   Q 694.72 183.34 690.86 178.90   Z"/>
<path fill="#ffffff" d="   M 817.74 440.07   Q 823.69 429.59 823.70 416.75   Q 823.75 293.50 823.75 170.25   Q 823.75 157.33 812.67 150.84   Q 802.51 144.89 790.98 142.35   C 790.65 142.28 790.38 142.09 790.23 141.83   Q 789.34 140.22 790.74 139.26   Q 791.47 138.75 792.90 138.75   Q 852.79 138.75 912.67 138.75   Q 912.78 138.75 913.32 138.72   Q 915.13 138.62 915.40 140.30   Q 915.71 142.28 913.74 142.68   Q 902.07 145.01 892.06 151.31   Q 882.04 157.61 882.04 170.50   Q 882.00 291.75 881.98 413.00   Q 881.98 428.63 875.23 442.01   Q 870.72 450.96 863.16 457.80   Q 850.24 469.50 832.56 473.06   Q 816.22 476.36 799.07 474.12   Q 781.49 471.82 765.05 465.26   Q 763.64 464.70 763.31 463.80   Q 762.89 462.65 763.88 461.59   C 764.09 461.38 764.41 461.29 764.74 461.35   Q 771.67 462.74 779.50 462.25   Q 793.28 461.39 804.12 454.40   Q 812.78 448.81 817.74 440.07   Z"/>
<path fill="#ffffff" d="   M 1154.56 381.06   Q 1144.21 389.42 1130.40 394.34   Q 1104.46 403.59 1074.00 401.50   Q 1050.40 399.88 1028.94 390.06   Q 1008.59 380.75 995.06 362.94   Q 980.92 344.31 980.87 319.00   Q 980.76 249.03 980.75 179.05   Q 980.75 167.29 980.24 164.98   Q 979.14 160.00 975.88 156.01   Q 973.31 152.87 968.26 150.03   Q 958.76 144.69 948.00 142.36   C 947.65 142.28 947.37 142.09 947.23 141.84   Q 946.41 140.39 947.78 139.24   C 948.02 139.04 948.35 138.93 948.70 138.93   L 1070.69 138.81   C 1071.02 138.81 1071.34 138.93 1071.57 139.14   Q 1073.48 140.88 1071.77 142.11   Q 1071.09 142.59 1069.49 142.93   Q 1056.58 145.73 1047.31 152.56   Q 1042.06 156.44 1040.21 162.63   Q 1039.25 165.84 1039.24 174.46   Q 1039.10 243.22 1039.23 311.99   Q 1039.26 326.13 1040.31 331.94   Q 1044.21 353.57 1061.78 366.23   Q 1069.63 371.89 1079.70 374.88   Q 1094.76 379.36 1111.25 377.75   Q 1122.38 376.67 1132.08 372.53   Q 1141.60 368.47 1148.68 361.62   Q 1162.29 348.43 1164.75 328.25   Q 1165.69 320.53 1165.67 313.75   Q 1165.51 245.39 1165.50 177.04   Q 1165.50 166.00 1164.13 162.12   Q 1161.46 154.57 1153.74 150.22   Q 1144.25 144.88 1133.55 142.74   Q 1131.33 142.30 1131.71 140.22   C 1131.87 139.37 1132.61 138.75 1133.47 138.75   L 1215.55 138.75   C 1216.41 138.75 1217.13 139.38 1217.24 140.23   Q 1217.55 142.57 1215.07 142.89   Q 1213.45 143.09 1213.31 143.12   Q 1203.01 145.41 1194.36 151.12   Q 1188.83 154.77 1186.56 159.22   Q 1183.75 164.73 1183.75 172.00   Q 1183.75 241.12 1183.75 310.24   Q 1183.75 324.70 1183.07 330.23   Q 1179.26 361.13 1154.56 381.06   Z   M 1183.51 168.67   C 1183.51 168.60 1183.46 168.55 1183.39 168.55   L 1183.37 168.55   C 1183.30 168.55 1183.25 168.60 1183.25 168.67   L 1183.25 199.33   C 1183.25 199.40 1183.30 199.45 1183.37 199.45   L 1183.39 199.45   C 1183.46 199.45 1183.51 199.40 1183.51 199.33   L 1183.51 168.67   Z"/>
<path fill="#ffffff" d="   M 1479.78 173.60   Q 1474.93 180.78 1472.18 189.18   Q 1469.65 196.92 1468.04 204.89   Q 1467.76 206.28 1467.04 206.99   Q 1465.53 208.46 1464.62 206.49   Q 1464.25 205.71 1464.25 204.45   Q 1464.21 172.26 1464.31 140.52   C 1464.32 139.54 1465.11 138.75 1466.09 138.75   L 1688.08 138.75   Q 1690.50 138.75 1690.50 141.17   L 1690.50 205.36   C 1690.50 206.09 1690.14 206.76 1689.54 207.17   Q 1687.04 208.83 1686.33 205.28   Q 1685.20 199.69 1683.73 194.19   Q 1680.57 182.41 1673.59 172.42   Q 1665.94 161.45 1654.00 157.28   Q 1648.64 155.41 1636.76 154.74   Q 1621.64 153.88 1606.51 153.25   C 1606.37 153.24 1606.25 153.35 1606.25 153.49   Q 1606.25 259.50 1606.25 365.50   Q 1606.25 373.30 1610.05 378.98   Q 1613.10 383.55 1620.32 387.45   Q 1628.40 391.80 1637.50 393.74   Q 1638.98 394.06 1639.64 394.90   Q 1640.90 396.51 1639.03 397.38   Q 1638.25 397.75 1636.91 397.75   Q 1577.20 397.75 1516.55 397.75   Q 1514.70 397.75 1514.51 395.90   Q 1514.31 393.96 1516.34 393.72   Q 1517.92 393.53 1518.03 393.50   Q 1530.26 390.76 1539.31 384.31   Q 1544.51 380.61 1546.55 374.69   Q 1547.75 371.23 1547.75 363.16   Q 1547.71 258.84 1547.81 153.83   C 1547.81 153.51 1547.54 153.25 1547.22 153.26   Q 1530.00 154.04 1512.50 154.94   Q 1500.96 155.54 1491.78 161.46   Q 1485.02 165.82 1479.78 173.60   Z"/>
<path fill="#ffffff" d="   M 1814.21 369.25   Q 1813.84 268.50 1814.08 167.75   Q 1814.08 166.86 1813.86 167.09   Q 1813.75 167.20 1813.74 167.44   Q 1813.50 171.22 1813.50 179.00   Q 1813.50 271.00 1813.29 363.00   Q 1813.27 368.04 1813.75 369.75   Q 1813.93 370.39 1814.29 369.75   Q 1815.57 378.80 1821.56 383.44   Q 1831.49 391.12 1846.19 393.97   C 1846.53 394.03 1846.82 394.21 1847.00 394.45   Q 1848.35 396.26 1846.75 397.23   Q 1846.00 397.69 1844.53 397.69   Q 1784.17 397.84 1723.82 397.69   C 1723.46 397.69 1723.14 397.59 1722.90 397.41   Q 1721.22 396.19 1722.41 394.77   Q 1723.01 394.06 1724.38 393.77   Q 1737.82 390.99 1747.19 384.19   Q 1753.56 379.56 1755.21 372.14   Q 1755.75 369.70 1755.75 358.32   Q 1755.75 264.79 1755.75 171.25   Q 1755.75 160.54 1749.34 154.25   Q 1745.56 150.55 1736.95 146.81   Q 1730.26 143.90 1723.00 142.50   Q 1720.82 142.08 1722.31 139.81   Q 1723.16 138.52 1724.68 138.66   Q 1725.75 138.75 1725.82 138.75   Q 1785.88 138.70 1845.93 138.81   C 1846.28 138.81 1846.59 138.93 1846.81 139.15   Q 1848.18 140.54 1847.11 141.77   Q 1846.54 142.43 1845.14 142.73   Q 1831.55 145.70 1822.44 152.44   Q 1814.05 158.65 1814.07 170.25   Q 1814.28 269.75 1814.21 369.25   Z"/>
<path fill="#ffffff" d="   M 2087.69 300.19   Q 2087.36 234.47 2087.50 168.75   Q 2087.51 161.95 2083.51 156.80   Q 2080.58 153.03 2074.02 149.37   Q 2065.40 144.57 2055.61 142.46   Q 2052.63 141.81 2054.05 139.49   C 2054.33 139.03 2054.83 138.75 2055.37 138.75   Q 2096.86 138.75 2135.56 138.75   Q 2137.11 138.75 2137.79 139.32   Q 2138.92 140.27 2137.81 141.85   C 2137.63 142.10 2137.34 142.28 2137.00 142.36   Q 2126.23 144.81 2116.00 150.50   Q 2108.68 154.57 2105.99 161.57   Q 2104.50 165.44 2104.50 175.62   Q 2104.50 286.44 2104.50 397.27   Q 2104.50 397.34 2104.61 399.22   Q 2104.85 403.18 2100.68 402.42   C 2100.37 402.36 2100.08 402.19 2099.86 401.94   Q 2095.18 396.59 2088.19 387.81   Q 2010.36 290.03 1931.82 191.54   Q 1931.50 191.14 1931.50 191.66   Q 1931.50 278.60 1931.50 364.52   Q 1931.50 370.81 1932.82 374.29   Q 1935.01 380.10 1939.75 383.94   Q 1943.57 387.03 1950.96 390.08   Q 1956.68 392.44 1963.30 393.79   Q 1965.10 394.16 1965.24 395.99   Q 1965.37 397.83 1962.75 397.83   Q 1923.18 397.80 1883.61 397.69   Q 1882.04 397.69 1881.26 396.92   Q 1880.01 395.68 1881.61 394.42   Q 1882.32 393.87 1883.66 393.61   Q 1897.44 390.89 1907.00 383.25   Q 1912.75 378.66 1914.12 371.55   Q 1914.50 369.60 1914.50 358.43   Q 1914.50 265.21 1914.50 172.00   C 1914.50 171.68 1914.39 171.37 1914.19 171.12   Q 1908.82 164.50 1899.69 155.56   Q 1888.07 144.19 1872.56 142.49   C 1872.24 142.45 1871.97 142.27 1871.83 142.00   Q 1870.15 138.56 1874.08 138.70   Q 1875.36 138.75 1875.41 138.75   Q 1917.58 138.75 1959.73 138.75   C 1960.42 138.75 1961.08 139.07 1961.50 139.61   L 2087.38 300.29   Q 2087.69 300.68 2087.69 300.19   Z"/>
<path fill="#fefdfc" fill-opacity="0.988" d="   M 2384.26 207.34   C 2384.26 207.41 2384.21 207.46 2384.14 207.46   L 2384.12 207.46   C 2384.05 207.46 2384.00 207.41 2384.00 207.34   L 2384.00 152.42   C 2384.00 152.35 2384.05 152.30 2384.12 152.30   L 2384.14 152.30   C 2384.21 152.30 2384.26 152.35 2384.26 152.42   L 2384.26 207.34   Z"/>
<path fill="#ffffff" d="   M 392.86 173.61   C 392.86 179.72 387.90 184.68 381.79 184.68   C 375.68 184.68 370.72 179.72 370.72 173.61   C 370.72 167.50 375.68 162.54 381.79 162.54   C 387.90 162.54 392.86 167.50 392.86 173.61   Z"/>
<path fill="#ffffff" d="   M 505.56 416.54   C 504.82 416.60 504.10 416.20 503.76 415.52   Q 474.67 358.25 446.16 301.25   Q 444.07 297.08 437.34 283.32   Q 430.16 268.63 425.06 259.44   Q 418.92 248.34 411.18 238.02   C 410.63 237.28 410.48 236.32 410.77 235.45   Q 419.39 209.38 426.12 183.40   Q 427.46 178.23 427.97 174.51   Q 428.57 170.03 428.75 165.48   Q 428.80 164.29 429.70 165.07   Q 431.35 166.51 432.36 168.47   Q 494.60 289.52 556.22 410.21   Q 557.26 412.24 555.01 412.43   L 505.56 416.54   Z"/>
<path fill="#fefdfc" fill-opacity="0.988" d="   M 1814.21 369.25   L 1814.29 369.75   Q 1813.93 370.39 1813.75 369.75   Q 1813.27 368.04 1813.29 363.00   Q 1813.50 271.00 1813.50 179.00   Q 1813.50 171.22 1813.74 167.44   Q 1813.75 167.20 1813.86 167.09   Q 1814.08 166.86 1814.08 167.75   Q 1813.84 268.50 1814.21 369.25   Z"/>
<path fill="#fefdfc" fill-opacity="0.988" d="   M 1183.51 199.33   C 1183.51 199.40 1183.46 199.45 1183.39 199.45   L 1183.37 199.45   C 1183.30 199.45 1183.25 199.40 1183.25 199.33   L 1183.25 168.67   C 1183.25 168.60 1183.30 168.55 1183.37 168.55   L 1183.39 168.55   C 1183.46 168.55 1183.51 168.60 1183.51 168.67   L 1183.51 199.33   Z"/>
<path fill="#ffffff" d="   M 374.19 203.51   C 374.19 209.61 369.24 214.56 363.14 214.56   C 357.04 214.56 352.09 209.61 352.09 203.51   C 352.09 197.41 357.04 192.46 363.14 192.46   C 369.24 192.46 374.19 197.41 374.19 203.51   Z"/>
<path fill="#ffffff" d="   M 347.58 226.03   C 347.58 232.00 342.74 236.84 336.77 236.84   C 330.80 236.84 325.96 232.00 325.96 226.03   C 325.96 220.06 330.80 215.22 336.77 215.22   C 342.74 215.22 347.58 220.06 347.58 226.03   Z"/>
<path fill="#ffffff" d="   M 317.97 244.83   C 317.97 251.85 312.28 257.54 305.26 257.54   C 298.24 257.54 292.55 251.85 292.55 244.83   C 292.55 237.81 298.24 232.12 305.26 232.12   C 312.28 232.12 317.97 237.81 317.97 244.83   Z"/>
<path fill="#ffffff" d="   M 281.31 264.81   C 281.31 271.84 275.62 277.53 268.59 277.53   C 261.56 277.53 255.87 271.84 255.87 264.81   C 255.87 257.78 261.56 252.09 268.59 252.09   C 275.62 252.09 281.31 257.78 281.31 264.81   Z"/>
<path fill="#ffffff" d="   M 248.28 294.92   C 248.28 303.60 241.25 310.63 232.57 310.63   C 223.89 310.63 216.86 303.60 216.86 294.92   C 216.86 286.24 223.89 279.21 232.57 279.21   C 241.25 279.21 248.28 286.24 248.28 294.92   Z"/>
<path fill="#ffffff" d="   M 216.16 333.41   C 216.16 342.08 209.14 349.10 200.47 349.10   C 191.80 349.10 184.78 342.08 184.78 333.41   C 184.78 324.74 191.80 317.72 200.47 317.72   C 209.14 317.72 216.16 324.74 216.16 333.41   Z"/>
<path fill="#ffffff" d="   M 209.24 382.15   C 209.24 391.86 201.36 399.74 191.65 399.74   C 181.94 399.74 174.06 391.86 174.06 382.15   C 174.06 372.44 181.94 364.56 191.65 364.56   C 201.36 364.56 209.24 372.44 209.24 382.15   Z"/>
<path fill="#ffffff" d="   M 222.66 438.28   C 222.66 448.00 214.78 455.88 205.06 455.88   C 195.34 455.88 187.46 448.00 187.46 438.28   C 187.46 428.56 195.34 420.68 205.06 420.68   C 214.78 420.68 222.66 428.56 222.66 438.28   Z"/>
<path fill="#ffffff" d="   M 2033.26 555.01   C 2033.14 554.70 2032.85 554.50 2032.52 554.50   L 1992.23 554.50   C 1991.92 554.50 1991.64 554.69 1991.52 554.97   L 1980.36 582.19   C 1980.04 582.98 1979.26 583.50 1978.40 583.50   L 1966.32 583.50   Q 1963.60 583.50 1964.65 580.99   Q 1988.05 525.19 2011.36 469.63   Q 2011.96 468.21 2012.51 467.65   Q 2014.04 466.12 2015.25 469.00   Q 2038.88 525.37 2062.21 581.05   Q 2063.23 583.50 2060.58 583.50   L 2045.42 583.50   C 2044.87 583.50 2044.38 583.17 2044.18 582.66   L 2033.26 555.01   Z   M 2012.55 503.84   L 1998.00 539.47   C 1997.91 539.69 1998.07 539.94 1998.32 539.94   L 2026.69 539.94   C 2026.93 539.94 2027.10 539.69 2027.01 539.47   L 2013.07 503.85   Q 2012.81 503.18 2012.55 503.84   Z"/>
<path fill="#ffffff" d="   M 1500.44 568.31   Q 1490.83 559.07 1486.92 547.69   Q 1476.91 518.55 1494.56 493.81   Q 1496.72 490.80 1501.51 486.27   Q 1505.73 482.29 1509.46 479.82   Q 1524.15 470.07 1541.57 470.48   Q 1551.49 470.71 1561.01 474.55   Q 1581.53 482.81 1591.81 503.19   Q 1598.29 516.03 1597.57 530.34   Q 1597.07 540.26 1593.06 549.71   Q 1585.18 568.28 1566.69 578.19   Q 1554.27 584.84 1539.50 584.61   Q 1517.03 584.26 1500.44 568.31   Z   M 1542.4880 568.7971   C 1564.67 567.67 1581.72 548.31 1580.5685 525.5452   C 1579.42 502.78 1560.50 485.24 1538.3120 486.3629   C 1516.13 487.49 1499.08 506.85 1500.2315 529.6148   C 1501.38 552.38 1520.30 569.92 1542.4880 568.7971   Z"/>
<path fill="#ffffff" d="   M 1421.68 487.82   L 1421.50 581.46   Q 1421.49 583.50 1419.47 583.50   L 1406.59 583.50   C 1405.71 583.50 1405.00 582.79 1405.00 581.91   L 1405.00 488.37   C 1405.00 487.89 1404.61 487.50 1404.13 487.50   L 1378.06 487.50   C 1377.06 487.50 1376.25 486.69 1376.25 485.69   L 1376.25 473.99   Q 1376.25 471.50 1378.72 471.51   L 1449.81 471.74   C 1450.61 471.75 1451.25 472.40 1451.25 473.20   L 1451.20 485.48   Q 1451.20 487.51 1449.18 487.49   L 1422.18 487.32   C 1421.90 487.32 1421.68 487.54 1421.68 487.82   Z   M 1421.26 490.92   C 1421.26 490.85 1421.21 490.80 1421.14 490.80   L 1421.12 490.80   C 1421.05 490.80 1421.00 490.85 1421.00 490.92   L 1421.00 546.34   C 1421.00 546.41 1421.05 546.46 1421.12 546.46   L 1421.14 546.46   C 1421.21 546.46 1421.26 546.41 1421.26 546.34   L 1421.26 490.92   Z"/>
<path fill="#ffffff" d="   M 1729.31 535.81   L 1729.25 582.08   C 1729.25 582.71 1728.77 583.23 1728.15 583.28   Q 1721.00 583.87 1713.87 583.28   C 1713.24 583.23 1712.75 582.70 1712.75 582.06   L 1712.75 473.12   C 1712.75 472.39 1713.31 471.79 1714.03 471.73   Q 1721.12 471.14 1728.33 471.74   C 1728.85 471.78 1729.25 472.21 1729.25 472.73   L 1729.25 518.94   C 1729.25 519.25 1729.50 519.50 1729.81 519.50   L 1784.80 519.50   C 1785.09 519.50 1785.32 519.27 1785.31 518.98   L 1785.25 473.84   Q 1785.25 471.70 1787.27 471.68   L 1799.90 471.56   Q 1801.75 471.54 1801.75 473.49   L 1801.75 581.51   Q 1801.75 583.45 1799.84 583.45   L 1787.29 583.49   Q 1785.31 583.50 1785.31 581.52   L 1785.31 535.93   C 1785.31 535.65 1785.09 535.43 1784.81 535.43   L 1729.80 535.31   C 1729.53 535.31 1729.31 535.53 1729.31 535.81   Z"/>
<path fill="#ffffff" d="   M 1870.82 567.68   Q 1899.53 567.18 1927.57 567.74   C 1928.50 567.76 1929.25 568.52 1929.25 569.45   L 1929.25 581.65   Q 1929.25 583.50 1927.40 583.50   Q 1891.63 583.50 1856.50 583.50   Q 1854.08 583.50 1853.60 581.90   Q 1853.50 581.58 1853.50 579.08   Q 1853.50 526.78 1853.50 473.85   Q 1853.50 471.77 1855.57 471.74   Q 1890.37 471.13 1925.80 471.75   C 1926.47 471.76 1927.00 472.30 1927.00 472.96   L 1926.95 486.12   C 1926.95 486.88 1926.32 487.50 1925.55 487.50   L 1870.80 487.50   C 1870.50 487.50 1870.25 487.75 1870.25 488.05   L 1870.31 518.69   C 1870.31 518.97 1870.53 519.19 1870.81 519.19   L 1919.33 519.25   C 1920.11 519.25 1920.75 519.88 1920.75 520.66   L 1920.75 533.39   Q 1920.75 535.25 1918.89 535.25   L 1870.83 535.25   C 1870.51 535.25 1870.25 535.51 1870.25 535.83   L 1870.31 567.19   C 1870.31 567.46 1870.54 567.69 1870.82 567.68   Z"/>
<path fill="#ffffff" d="   M 2120.81 567.68   L 2174.16 567.50   Q 2176.20 567.50 2176.20 569.52   L 2176.24 581.73   C 2176.25 582.67 2175.48 583.44 2174.53 583.44   L 2105.48 583.50   C 2104.56 583.50 2103.81 582.75 2103.81 581.83   L 2103.75 472.82   C 2103.75 472.26 2104.18 471.80 2104.74 471.75   Q 2111.53 471.18 2118.98 471.74   C 2119.70 471.79 2120.25 472.39 2120.25 473.11   L 2120.31 567.18   C 2120.31 567.46 2120.53 567.68 2120.81 567.68   Z"/>
<path fill="#ffffff" d="   M 2227.94 487.56   Q 2206.93 487.38 2202.50 487.50   Q 2199.18 487.59 2199.30 484.49   Q 2199.50 479.50 2199.50 473.84   Q 2199.50 471.77 2201.57 471.74   Q 2236.53 471.17 2272.74 471.69   C 2273.72 471.71 2274.50 472.50 2274.50 473.48   L 2274.50 485.52   Q 2274.50 487.50 2272.52 487.50   L 2245.88 487.50   C 2245.39 487.50 2245.00 487.89 2245.00 488.38   Q 2245.00 534.37 2245.08 580.75   Q 2245.08 583.76 2242.37 583.58   Q 2241.22 583.50 2241.13 583.50   Q 2235.80 583.50 2230.24 583.50   C 2229.28 583.50 2228.50 582.72 2228.50 581.75   L 2228.44 488.07   C 2228.44 487.79 2228.22 487.56 2227.94 487.56   Z"/>
<path fill="#ffffff" d="   M 2390.69 519.19   L 2390.75 473.14   C 2390.75 472.39 2391.32 471.76 2392.07 471.70   Q 2398.40 471.18 2405.94 471.73   C 2406.68 471.79 2407.25 472.41 2407.25 473.15   L 2407.25 582.02   C 2407.25 582.68 2406.74 583.23 2406.09 583.28   Q 2399.00 583.87 2391.87 583.28   C 2391.24 583.23 2390.75 582.70 2390.75 582.06   L 2390.75 535.75   C 2390.75 535.47 2390.53 535.25 2390.25 535.25   L 2335.25 535.25   C 2334.97 535.25 2334.75 535.47 2334.75 535.75   L 2334.75 581.76   C 2334.75 582.69 2334.01 583.44 2333.09 583.45   L 2319.94 583.49   C 2319.01 583.50 2318.25 582.73 2318.25 581.79   L 2318.25 473.81   Q 2318.25 471.51 2320.45 471.54   L 2332.97 471.69   C 2333.96 471.71 2334.75 472.56 2334.75 473.61   L 2334.75 518.83   C 2334.75 519.20 2335.05 519.50 2335.43 519.50   L 2390.18 519.68   C 2390.46 519.68 2390.69 519.46 2390.69 519.19   Z   M 2406.88 474.28   C 2406.88 474.18 2406.79 474.09 2406.69 474.09   L 2406.69 474.09   C 2406.59 474.09 2406.50 474.18 2406.50 474.28   L 2406.50 581.30   C 2406.50 581.40 2406.59 581.49 2406.69 581.49   L 2406.69 581.49   C 2406.79 581.49 2406.88 581.40 2406.88 581.30   L 2406.88 474.28   Z"/>
<path fill="#fefdfc" fill-opacity="0.988" d="   M 2406.88 581.30   C 2406.88 581.40 2406.79 581.49 2406.69 581.49   L 2406.69 581.49   C 2406.59 581.49 2406.50 581.40 2406.50 581.30   L 2406.50 474.28   C 2406.50 474.18 2406.59 474.09 2406.69 474.09   L 2406.69 474.09   C 2406.79 474.09 2406.88 474.18 2406.88 474.28   L 2406.88 581.30   Z"/>
<path fill="#fefdfc" fill-opacity="0.988" d="   M 1421.26 546.34   C 1421.26 546.41 1421.21 546.46 1421.14 546.46   L 1421.12 546.46   C 1421.05 546.46 1421.00 546.41 1421.00 546.34   L 1421.00 490.92   C 1421.00 490.85 1421.05 490.80 1421.12 490.80   L 1421.14 490.80   C 1421.21 490.80 1421.26 490.85 1421.26 490.92   L 1421.26 546.34   Z"/>
</svg>